<svg xmlns="http://www.w3.org/2000/svg" width="0" height="0" style="display: none;" id="svgcon-sprite">

  <symbol id="email" viewBox="0 0 24 24">
    <path d="M20 4H4c-1.1 0-1.99.9-1.99 2L2 18c0 1.1.9 2 2 2h16c1.1 0 2-.9 2-2V6c0-1.1-.9-2-2-2zm0 4l-8 5-8-5V6l8 5 8-5v2z"/>
  </symbol>

  <symbol id="caret-down" viewBox="0 0 24 24">
    <polygon points="7.41 8 12 12.327 16.59 8 18 9.332 12 15 6 9.332"/>
  </symbol>

  <symbol id="twitter" viewBox="0 0 24 24">
    <path d="M8.97527115,19.4414637 C16.145441,19.4414637 20.0665279,13.5013038 20.0665279,8.35020693 C20.0665279,8.18148542 20.0630914,8.01352901 20.0555234,7.84633131 C20.8166606,7.29609123 21.4782085,6.60943557 22,5.82776848 C21.3015365,6.13822931 20.5498991,6.34722643 19.76141,6.44146641 C20.5662211,5.95886667 21.1840951,5.19545335 21.4755945,4.28537862 C20.722427,4.73187886 19.8883512,5.05639822 19.0002728,5.23160386 C18.2889303,4.47390959 17.2762059,4 16.1548388,4 C14.0021302,4 12.2564495,5.74574444 12.2564495,7.89762423 C12.2564495,8.20352002 12.290649,8.50106358 12.3575307,8.7864677 C9.11769268,8.62344612 6.24484294,7.07228323 4.32217141,4.71363783 C3.98739346,5.28971246 3.79435484,5.9588858 3.79435484,6.67290618 C3.79435484,8.02533052 4.48255343,9.21925369 5.52906923,9.91771724 C4.88951763,9.89795751 4.28873059,9.7223961 3.76362372,9.4301763 C3.7630499,9.44653137 3.7630499,9.46247649 3.7630499,9.47995625 C3.7630499,11.3678162 5.10673947,12.9440294 6.89041963,13.301199 C6.56285903,13.3904977 6.21822418,13.4383796 5.86252102,13.4383796 C5.61172447,13.4383796 5.36738018,13.4136953 5.12988345,13.3680806 C5.62615917,14.9169418 7.06524273,16.0440471 8.77139375,16.0755434 C7.43720405,17.1212941 5.75649228,17.7441412 3.92983956,17.7441412 C3.61557878,17.7441412 3.30512433,17.7262661 3,17.6901807 C4.72521452,18.795991 6.77374338,19.441217 8.97548155,19.441217"/>
  </symbol>

  <symbol id="rss" viewBox="0 0 24 24">
    <circle cx="6.18" cy="17.82" r="2.18"/>
    <path d="M4,4.44 L4,7.27 C11.03,7.27 16.73,12.97 16.73,20 L19.56,20 C19.56,11.41 12.59,4.44 4,4.44 L4,4.44 Z M4,10.1 L4,12.93 C7.9,12.93 11.07,16.1 11.07,20 L13.9,20 C13.9,14.53 9.47,10.1 4,10.1 L4,10.1 Z"/>
  </symbol>

  <symbol id="search" viewBox="0 0 24 24">
    <path d="M15.5,14 L14.71,14 L14.43,13.73 C15.41,12.59 16,11.11 16,9.5 C16,5.91 13.09,3 9.5,3 C5.91,3 3,5.91 3,9.5 C3,13.09 5.91,16 9.5,16 C11.11,16 12.59,15.41 13.73,14.43 L14,14.71 L14,15.5 L19,20.49 L20.49,19 L15.5,14 L15.5,14 Z M9.5,14 C7.01,14 5,11.99 5,9.5 C5,7.01 7.01,5 9.5,5 C11.99,5 14,7.01 14,9.5 C14,11.99 11.99,14 9.5,14 Z"/>
  </symbol>

  <symbol id="cancel" viewBox="0 0 24 24">
    <path d="M19 6.41L17.59 5 12 10.59 6.41 5 5 6.41 10.59 12 5 17.59 6.41 19 12 13.41 17.59 19 19 17.59 13.41 12z"/>
  </symbol>

  <symbol id="add" viewBox="0 0 24 24">
    <path d="M19 13h-6v6h-2v-6H5v-2h6V5h2v6h6v2z"/>
  </symbol>

  <symbol id="external-link" viewBox="0 0 24 24">
    <path d="M21,12 L21,22 L0,22 L0,3 L12,3 L12,5 L2,5 L2,20 L19,20 L19,12 L21,12 Z M24,0 L13.012,0 L17.047,4 L10.07,11.07 L12.898,13.898 L19.875,6.828 L24,11 L24,0 Z"/>
  </symbol>

  <symbol id='eyedropper' viewBox="0 0 24 24">
    <path d="M17.172,8.328 C16.6605,8.778 16.60725,9.5565 17.05725,10.071 L16.128,10.88325 L12.066,6.23475 L12.99525,5.42325 C13.4445,5.93625 14.22375,5.988 14.73525,5.53875 L17.16975,3.45675 C17.52225,3.1515 17.95575,3 18.3885,3 C19.4235,3 20.25,3.846 20.25,4.85325 C20.25,5.40075 20.0085,5.898 19.6095,6.24675 L17.172,8.328 L17.172,8.328 Z M11.96475,11.25 L10.08975,11.25 L12.76125,8.90775 L11.9475,7.97775 L6.44325,12.768 C5.5515,13.54275 6.16725,14.14125 5.43225,15.16425 C5.3325,15.30375 5.27475,15.44325 5.259,15.57675 C5.2095,15.98175 5.50275,16.323 5.87175,16.36875 C6.01725,16.386 6.17925,16.3575 6.33375,16.266 C7.49625,15.582 7.96725,16.35375 8.88075,15.55575 L14.38575,10.76775 L13.575,9.837 L11.96475,11.25 L11.96475,11.25 Z M5.13525,16.875 C4.734,18.41475 3.75,18.62625 3.75,19.638 C3.75,20.39025 4.3755,21 5.13525,21 C5.895,21 6.51075,20.39025 6.51075,19.638 C6.51075,18.62625 5.5365,18.41475 5.13525,16.875 L5.13525,16.875 Z" />
  </symbol>

  <symbol id='clock' viewBox="0 0 24 24">
    <path d="M12,4.5 C16.1355,4.5 19.5,7.8645 19.5,12 C19.5,16.1355 16.1355,19.5 12,19.5 C7.8645,19.5 4.5,16.1355 4.5,12 C4.5,7.8645 7.8645,4.5 12,4.5 Z M12,3 C7.02975,3 3,7.02975 3,12 C3,16.97025 7.02975,21 12,21 C16.97025,21 21,16.97025 21,12 C21,7.02975 16.97025,3 12,3 Z M12.75,12 L12.75,7.5 L11.25,7.5 L11.25,13.5 L16.5,13.5 L16.5,12 L12.75,12 Z"/>
  </symbol>

  <symbol id='category' viewBox="0 0 24 24">
    <path d="M7 4C7 2.8954305 7.89354265 2 9.00276013 2L14.9972399 2C16.1033337 2 17 2.90378361 17 4L7 4zM5 7C5 5.8954305 5.89451376 5 6.99406028 5L17.0059397 5C18.1072288 5 19 5.89324521 19 7L5 7zM5 17.9914698C5 17.9978202 19.0049107 18 19.0049107 18 18.9994849 18 19 10.0085302 19 10.0085302 19 10.0021798 4.99508929 10 4.99508929 10 5.00051505 10 5 17.9914698 5 17.9914698zM3 10.0085302C3 8.8992496 3.8926228 8 4.99508929 8L19.0049107 8C20.1067681 8 21 8.90195036 21 10.0085302L21 17.9914698C21 19.1007504 20.1073772 20 19.0049107 20L4.99508929 20C3.8932319 20 3 19.0980496 3 17.9914698L3 10.0085302z"/>
  </symbol>
</svg>