<?xml version="1.0" encoding="UTF-8" standalone="no"?>
<svg width="205px" height="25px" viewBox="0 0 205 25" version="1.1" xmlns="http://www.w3.org/2000/svg" xmlns:xlink="http://www.w3.org/1999/xlink" xmlns:sketch="http://www.bohemiancoding.com/sketch/ns">
    <!-- Generator: Sketch 3.3.2 (12043) - http://www.bohemiancoding.com/sketch -->
    <title>macicongallery-logo</title>
    <desc>Created with Sketch.</desc>
    <defs></defs>
    <g id="Page-1" stroke="none" stroke-width="1" fill="none" fill-rule="evenodd" sketch:type="MSPage">
        <g id="applewatchicongallery-logo" sketch:type="MSArtboardGroup" transform="translate(-72.000000, -235.000000)">
            <g id="mac" sketch:type="MSLayerGroup" transform="translate(72.086650, 235.484689)">
                <path d="M82.9940048,18.6031718 L82.9940048,5.98064165 L80.6989993,5.98064165 L80.6989993,18.6031718 L82.9940048,18.6031718 Z M81.8465021,0.999436588 C81.0119546,0.999436588 80.4121236,1.62534717 80.4121236,2.43381501 C80.4121236,3.21620324 80.985875,3.84211382 81.7943428,3.84211382 C82.7071291,3.84211382 83.2808805,3.21620324 83.2548009,2.43381501 C83.2548009,1.62534717 82.7071291,0.999436588 81.8465021,0.999436588 L81.8465021,0.999436588 Z M95.407898,16.4124847 C94.7559078,16.6993604 93.8952808,17.0383953 92.5913004,17.0383953 C90.0876581,17.0383953 88.2099263,15.2389024 88.2099263,12.3179863 C88.2099263,9.68394594 89.7747028,7.54541811 92.6695392,7.54541811 C93.9213604,7.54541811 94.7819875,7.8322938 95.3296592,8.14524909 L95.8512514,6.37183577 C95.2253408,6.05888047 94.0256788,5.71984557 92.6695392,5.71984557 C88.5489612,5.71984557 85.8888412,8.5364432 85.8888412,12.4223047 C85.8888412,16.2820867 88.366404,18.8639678 92.1740267,18.8639678 C93.8692012,18.8639678 95.1992612,18.4466941 95.7990922,18.1337388 L95.407898,16.4124847 Z M103.675134,5.69376597 C100.180466,5.69376597 97.4160278,8.1713287 97.4160278,12.3962251 C97.4160278,16.3864051 100.050068,18.8900474 103.466497,18.8900474 C106.517811,18.8900474 109.751682,16.855838 109.751682,12.1875883 C109.751682,8.32780634 107.300199,5.69376597 103.675134,5.69376597 L103.675134,5.69376597 Z M103.622974,7.41502007 C106.335254,7.41502007 107.404518,10.1272993 107.404518,12.2658271 C107.404518,15.1085043 105.761502,17.1687933 103.570815,17.1687933 C101.327969,17.1687933 99.7371129,15.0824247 99.7371129,12.3179863 C99.7371129,9.91866241 100.910695,7.41502007 103.622974,7.41502007 L103.622974,7.41502007 Z M112.646519,18.6031718 L114.941524,18.6031718 L114.941524,11.0140059 C114.941524,10.6228118 114.993683,10.2316177 115.098002,9.94474202 C115.489196,8.66684124 116.662778,7.59757733 118.175396,7.59757733 C120.340003,7.59757733 121.096312,9.29275182 121.096312,11.3269612 L121.096312,18.6031718 L123.391317,18.6031718 L123.391317,11.0661651 C123.391317,6.73695027 120.679038,5.69376597 118.931704,5.69376597 C116.845336,5.69376597 115.384878,6.86734831 114.758967,8.06701026 L114.706808,8.06701026 L114.57641,5.98064165 L112.5422,5.98064165 C112.620439,7.02382596 112.646519,8.09308987 112.646519,9.39707026 L112.646519,18.6031718 Z M141.516644,5.98064165 L141.412326,7.88445301 L141.360167,7.88445301 C140.812495,6.8412687 139.612833,5.69376597 137.422146,5.69376597 C134.52731,5.69376597 131.736792,8.11916948 131.736792,12.3962251 C131.736792,15.8908926 133.979638,18.5510125 137.109191,18.5510125 C139.065161,18.5510125 140.421301,17.6121467 141.12545,16.4385643 L141.177609,16.4385643 L141.177609,17.8468631 C141.177609,21.0285753 139.456355,22.2543168 137.109191,22.2543168 C135.544414,22.2543168 134.240434,21.7848839 133.405886,21.2632917 L132.832135,23.0106255 C133.84924,23.6886953 135.518335,24.0538098 137.030952,24.0538098 C138.621808,24.0538098 140.395221,23.6886953 141.620963,22.5411925 C142.846704,21.445849 143.420456,19.6724357 143.420456,16.7775992 L143.420456,9.44922947 C143.420456,7.91053262 143.472615,6.89342792 143.524774,5.98064165 L141.516644,5.98064165 Z M141.15153,13.2307726 C141.15153,13.6219667 141.099371,14.06532 140.968973,14.4565141 C140.47346,15.9169722 139.195559,16.8036788 137.78726,16.8036788 C135.309698,16.8036788 134.057877,14.7433898 134.057877,12.2658271 C134.057877,9.34491104 135.622653,7.4932589 137.81334,7.4932589 C139.482435,7.4932589 140.603858,8.58860242 141.021132,9.91866241 C141.12545,10.2316177 141.15153,10.5706526 141.15153,10.9618467 L141.15153,13.2307726 Z M156.303782,18.6031718 C156.147304,17.7425447 156.095145,16.6732808 156.095145,15.5779373 L156.095145,10.8575283 C156.095145,8.32780634 155.156279,5.69376597 151.296497,5.69376597 C149.705641,5.69376597 148.193024,6.1371193 147.14984,6.8151891 L147.671432,8.32780634 C148.558138,7.75405497 149.78388,7.38894047 150.957462,7.38894047 C153.539344,7.38894047 153.826219,9.26667222 153.826219,10.3098565 L153.826219,10.5706526 C148.949333,10.544573 146.237053,12.2136679 146.237053,15.264982 C146.237053,17.0905545 147.541034,18.8900474 150.096835,18.8900474 C151.896328,18.8900474 153.252468,18.0033408 153.956617,17.0123157 L154.034856,17.0123157 L154.217413,18.6031718 L156.303782,18.6031718 Z M153.878378,14.3521957 C153.878378,14.5869122 153.826219,14.8477083 153.74798,15.0824247 C153.382866,16.1516886 152.339682,17.1948729 150.696666,17.1948729 C149.523084,17.1948729 148.532059,16.4907235 148.532059,15.0041859 C148.532059,12.5527028 151.374736,12.1093495 153.878378,12.1615087 L153.878378,14.3521957 Z M159.798449,18.6031718 L162.093455,18.6031718 L162.093455,0.0866503193 L159.798449,0.0866503193 L159.798449,18.6031718 Z M165.953237,18.6031718 L168.248242,18.6031718 L168.248242,0.0866503193 L165.953237,0.0866503193 L165.953237,18.6031718 Z M182.252992,12.7091804 C182.279071,12.474464 182.33123,12.1093495 182.33123,11.6399165 C182.33123,9.31883143 181.235887,5.69376597 177.115309,5.69376597 C173.438084,5.69376597 171.195238,8.69292085 171.195238,12.5005436 C171.195238,16.3081663 173.516323,18.8639678 177.402185,18.8639678 C179.410314,18.8639678 180.792534,18.4466941 181.601001,18.0815796 L181.209807,16.4385643 C180.34918,16.8036788 179.358155,17.0905545 177.71514,17.0905545 C175.420134,17.0905545 173.438084,15.8126537 173.385925,12.7091804 L182.252992,12.7091804 Z M173.412005,11.0661651 C173.594562,9.47530908 174.611667,7.33678125 176.932752,7.33678125 C179.514633,7.33678125 180.140543,9.60570712 180.114464,11.0661651 L173.412005,11.0661651 Z M185.173908,18.6031718 L187.442833,18.6031718 L187.442833,11.874633 C187.442833,11.4834389 187.494993,11.1183244 187.547152,10.8053691 C187.860107,9.08411496 189.00761,7.8583734 190.624546,7.8583734 C190.937501,7.8583734 191.172217,7.88445301 191.406934,7.93661223 L191.406934,5.77200479 C191.198297,5.71984557 191.01574,5.69376597 190.754944,5.69376597 C189.216247,5.69376597 187.834028,6.76302988 187.260276,8.45820438 L187.155958,8.45820438 L187.077719,5.98064165 L185.069589,5.98064165 C185.147828,7.154224 185.173908,8.43212477 185.173908,9.91866241 L185.173908,18.6031718 Z M192.684835,5.98064165 L197.353084,17.6121467 C197.457403,17.8990224 197.509562,18.0815796 197.509562,18.2119776 C197.509562,18.3423757 197.431323,18.5249329 197.327005,18.7596494 C196.805413,19.9332318 196.023024,20.8199384 195.397114,21.315451 C194.719044,21.8892023 193.962735,22.2543168 193.388984,22.4368741 L193.962735,24.3667651 C194.536487,24.2624466 195.65791,23.8712525 196.779333,22.8802274 C198.344109,21.5240878 199.465533,19.3073212 201.108548,14.9781063 L204.551056,5.98064165 L202.125653,5.98064165 L199.62201,13.3872502 C199.309055,14.3000365 199.048259,15.264982 198.813542,16.0212906 L198.761383,16.0212906 C198.552746,15.264982 198.239791,14.2739569 197.952915,13.4394094 L195.188477,5.98064165 L192.684835,5.98064165 Z" id="icon-gallery-copy-2" fill="#999999" sketch:type="MSShapeGroup"></path>
                <path d="M16.5919382,19.3924844 L10.0048783,0.0866503193 L8.18758593,0.0866503193 L14.1148037,19.3924844 L16.5919382,19.3924844 Z M7.67861683,11.9288161 L10.5133929,11.9288161 L11.0746222,13.7338387 L7.10329997,13.7333843 L7.67861683,11.9288161 Z M3.96768678,19.3924844 L1.57098765,19.3924844 L7.55728223,1.85077357 L8.50023837,5.31721667 L3.96768678,19.3924844 Z M2.1772062,13.7338387 L0,13.7338387 L0,11.9288161 L2.80114779,11.9292706 L2.1772062,13.7338387 Z M15.9679966,13.7338387 L18.1452028,13.7338387 L18.1452028,11.9288161 L15.344055,11.9292706 L15.9679966,13.7338387 Z" id="Fill-3" fill="#000000" sketch:type="MSShapeGroup"></path>
                <path d="M44.4048786,19 L46.6216453,19 L45.5263018,1.42234443 L42.6314653,1.42234443 L39.5019124,9.92429653 C38.7195242,12.1410632 38.0936136,14.0709542 37.6502603,15.8443675 L37.5720214,15.8443675 C37.1286681,14.0187949 36.5288371,12.088904 35.7986081,9.92429653 L32.7994532,1.42234443 L29.9046168,1.42234443 L28.6788752,19 L30.8434827,19 L31.3129156,11.4629934 C31.4693932,8.82895301 31.5997913,5.88195734 31.6519505,3.6912703 L31.7041097,3.6912703 C32.1996223,5.77763891 32.9037717,8.04656478 33.7383191,10.5241275 L36.5809964,18.8956816 L38.3022505,18.8956816 L41.4057238,10.3676499 C42.2924304,7.94224635 43.0226594,5.75155931 43.6224904,3.6912703 L43.7007292,3.6912703 C43.6746496,5.88195734 43.8311273,8.82895301 43.9615253,11.2804361 L44.4048786,19 Z M59.270255,19 C59.1137774,18.1393729 59.0616182,17.070109 59.0616182,15.9747655 L59.0616182,11.2543565 C59.0616182,8.72463458 58.1227523,6.09059421 54.2629703,6.09059421 C52.6721143,6.09059421 51.159497,6.53394754 50.1163127,7.21201734 L50.6379049,8.72463458 C51.5246115,8.15088321 52.7503531,7.7857687 53.9239354,7.7857687 C56.5058166,7.7857687 56.7926923,9.66350046 56.7926923,10.7066848 L56.7926923,10.9674808 C51.9158057,10.9414012 49.2035265,12.6104961 49.2035265,15.6618102 C49.2035265,17.4873828 50.5075068,19.2868757 53.0633084,19.2868757 C54.8628013,19.2868757 56.2189409,18.400169 56.9230903,17.4091439 L57.0013292,17.4091439 L57.1838864,19 L59.270255,19 Z M56.8448515,14.749024 C56.8448515,14.9837404 56.7926923,15.2445365 56.7144535,15.479253 C56.349339,16.5485169 55.3061547,17.5917012 53.6631394,17.5917012 C52.489557,17.5917012 51.4985319,16.8875518 51.4985319,15.4010141 C51.4985319,12.949531 54.3412092,12.5061777 56.8448515,12.5583369 L56.8448515,14.749024 Z M71.371193,16.809313 C70.7192028,17.0961886 69.8585757,17.4352235 68.5545953,17.4352235 C66.050953,17.4352235 64.1732213,15.6357306 64.1732213,12.7148146 C64.1732213,10.0807742 65.7379977,7.94224635 68.6328342,7.94224635 C69.8846553,7.94224635 70.7452824,8.22912203 71.2929542,8.54207733 L71.8145463,6.76866401 C71.1886357,6.45570871 69.9889738,6.11667381 68.6328342,6.11667381 C64.5122562,6.11667381 61.8521362,8.93327144 61.8521362,12.819133 C61.8521362,16.6789149 64.3296989,19.2607961 68.1373216,19.2607961 C69.8324961,19.2607961 71.1625561,18.8435224 71.7623871,18.5305671 L71.371193,16.809313 Z" id="Mac" fill="#000000" sketch:type="MSShapeGroup"></path>
            </g>
        </g>
    </g>
</svg>