<?xml version="1.0" encoding="UTF-8" standalone="no"?>
<svg width="205px" height="25px" viewBox="0 0 205 25" version="1.1" xmlns="http://www.w3.org/2000/svg" xmlns:xlink="http://www.w3.org/1999/xlink" xmlns:sketch="http://www.bohemiancoding.com/sketch/ns">
    <!-- Generator: Sketch 3.3.2 (12043) - http://www.bohemiancoding.com/sketch -->
    <title>macicongallery-logo</title>
    <desc>Created with Sketch.</desc>
    <defs></defs>
    <g id="Page-1" stroke="none" stroke-width="1" fill="none" fill-rule="evenodd" sketch:type="MSPage">
        <g id="applewatchicongallery-logo" sketch:type="MSArtboardGroup" transform="translate(-72.000000, -235.000000)">
            <g id="mac" sketch:type="MSLayerGroup" transform="translate(72.086650, 234.484689)">
                <text id="Mac" sketch:type="MSTextLayer" font-family="Myriad Pro" font-size="26.0796077" font-weight="normal" fill="#000000">
                    <tspan x="27.166258" y="20">Mac</tspan>
                </text>
                <path d="M82.9940048,19.6031718 L82.9940048,6.98064165 L80.6989993,6.98064165 L80.6989993,19.6031718 L82.9940048,19.6031718 Z M81.8465021,1.99943659 C81.0119546,1.99943659 80.4121236,2.62534717 80.4121236,3.43381501 C80.4121236,4.21620324 80.985875,4.84211382 81.7943428,4.84211382 C82.7071291,4.84211382 83.2808805,4.21620324 83.2548009,3.43381501 C83.2548009,2.62534717 82.7071291,1.99943659 81.8465021,1.99943659 L81.8465021,1.99943659 Z M95.407898,17.4124847 C94.7559078,17.6993604 93.8952808,18.0383953 92.5913004,18.0383953 C90.0876581,18.0383953 88.2099263,16.2389024 88.2099263,13.3179863 C88.2099263,10.6839459 89.7747028,8.54541811 92.6695392,8.54541811 C93.9213604,8.54541811 94.7819875,8.8322938 95.3296592,9.14524909 L95.8512514,7.37183577 C95.2253408,7.05888047 94.0256788,6.71984557 92.6695392,6.71984557 C88.5489612,6.71984557 85.8888412,9.5364432 85.8888412,13.4223047 C85.8888412,17.2820867 88.366404,19.8639678 92.1740267,19.8639678 C93.8692012,19.8639678 95.1992612,19.4466941 95.7990922,19.1337388 L95.407898,17.4124847 Z M103.675134,6.69376597 C100.180466,6.69376597 97.4160278,9.1713287 97.4160278,13.3962251 C97.4160278,17.3864051 100.050068,19.8900474 103.466497,19.8900474 C106.517811,19.8900474 109.751682,17.855838 109.751682,13.1875883 C109.751682,9.32780634 107.300199,6.69376597 103.675134,6.69376597 L103.675134,6.69376597 Z M103.622974,8.41502007 C106.335254,8.41502007 107.404518,11.1272993 107.404518,13.2658271 C107.404518,16.1085043 105.761502,18.1687933 103.570815,18.1687933 C101.327969,18.1687933 99.7371129,16.0824247 99.7371129,13.3179863 C99.7371129,10.9186624 100.910695,8.41502007 103.622974,8.41502007 L103.622974,8.41502007 Z M112.646519,19.6031718 L114.941524,19.6031718 L114.941524,12.0140059 C114.941524,11.6228118 114.993683,11.2316177 115.098002,10.944742 C115.489196,9.66684124 116.662778,8.59757733 118.175396,8.59757733 C120.340003,8.59757733 121.096312,10.2927518 121.096312,12.3269612 L121.096312,19.6031718 L123.391317,19.6031718 L123.391317,12.0661651 C123.391317,7.73695027 120.679038,6.69376597 118.931704,6.69376597 C116.845336,6.69376597 115.384878,7.86734831 114.758967,9.06701026 L114.706808,9.06701026 L114.57641,6.98064165 L112.5422,6.98064165 C112.620439,8.02382596 112.646519,9.09308987 112.646519,10.3970703 L112.646519,19.6031718 Z M141.516644,6.98064165 L141.412326,8.88445301 L141.360167,8.88445301 C140.812495,7.8412687 139.612833,6.69376597 137.422146,6.69376597 C134.52731,6.69376597 131.736792,9.11916948 131.736792,13.3962251 C131.736792,16.8908926 133.979638,19.5510125 137.109191,19.5510125 C139.065161,19.5510125 140.421301,18.6121467 141.12545,17.4385643 L141.177609,17.4385643 L141.177609,18.8468631 C141.177609,22.0285753 139.456355,23.2543168 137.109191,23.2543168 C135.544414,23.2543168 134.240434,22.7848839 133.405886,22.2632917 L132.832135,24.0106255 C133.84924,24.6886953 135.518335,25.0538098 137.030952,25.0538098 C138.621808,25.0538098 140.395221,24.6886953 141.620963,23.5411925 C142.846704,22.445849 143.420456,20.6724357 143.420456,17.7775992 L143.420456,10.4492295 C143.420456,8.91053262 143.472615,7.89342792 143.524774,6.98064165 L141.516644,6.98064165 Z M141.15153,14.2307726 C141.15153,14.6219667 141.099371,15.06532 140.968973,15.4565141 C140.47346,16.9169722 139.195559,17.8036788 137.78726,17.8036788 C135.309698,17.8036788 134.057877,15.7433898 134.057877,13.2658271 C134.057877,10.344911 135.622653,8.4932589 137.81334,8.4932589 C139.482435,8.4932589 140.603858,9.58860242 141.021132,10.9186624 C141.12545,11.2316177 141.15153,11.5706526 141.15153,11.9618467 L141.15153,14.2307726 Z M156.303782,19.6031718 C156.147304,18.7425447 156.095145,17.6732808 156.095145,16.5779373 L156.095145,11.8575283 C156.095145,9.32780634 155.156279,6.69376597 151.296497,6.69376597 C149.705641,6.69376597 148.193024,7.1371193 147.14984,7.8151891 L147.671432,9.32780634 C148.558138,8.75405497 149.78388,8.38894047 150.957462,8.38894047 C153.539344,8.38894047 153.826219,10.2666722 153.826219,11.3098565 L153.826219,11.5706526 C148.949333,11.544573 146.237053,13.2136679 146.237053,16.264982 C146.237053,18.0905545 147.541034,19.8900474 150.096835,19.8900474 C151.896328,19.8900474 153.252468,19.0033408 153.956617,18.0123157 L154.034856,18.0123157 L154.217413,19.6031718 L156.303782,19.6031718 Z M153.878378,15.3521957 C153.878378,15.5869122 153.826219,15.8477083 153.74798,16.0824247 C153.382866,17.1516886 152.339682,18.1948729 150.696666,18.1948729 C149.523084,18.1948729 148.532059,17.4907235 148.532059,16.0041859 C148.532059,13.5527028 151.374736,13.1093495 153.878378,13.1615087 L153.878378,15.3521957 Z M159.798449,19.6031718 L162.093455,19.6031718 L162.093455,1.08665032 L159.798449,1.08665032 L159.798449,19.6031718 Z M165.953237,19.6031718 L168.248242,19.6031718 L168.248242,1.08665032 L165.953237,1.08665032 L165.953237,19.6031718 Z M182.252992,13.7091804 C182.279071,13.474464 182.33123,13.1093495 182.33123,12.6399165 C182.33123,10.3188314 181.235887,6.69376597 177.115309,6.69376597 C173.438084,6.69376597 171.195238,9.69292085 171.195238,13.5005436 C171.195238,17.3081663 173.516323,19.8639678 177.402185,19.8639678 C179.410314,19.8639678 180.792534,19.4466941 181.601001,19.0815796 L181.209807,17.4385643 C180.34918,17.8036788 179.358155,18.0905545 177.71514,18.0905545 C175.420134,18.0905545 173.438084,16.8126537 173.385925,13.7091804 L182.252992,13.7091804 Z M173.412005,12.0661651 C173.594562,10.4753091 174.611667,8.33678125 176.932752,8.33678125 C179.514633,8.33678125 180.140543,10.6057071 180.114464,12.0661651 L173.412005,12.0661651 Z M185.173908,19.6031718 L187.442833,19.6031718 L187.442833,12.874633 C187.442833,12.4834389 187.494993,12.1183244 187.547152,11.8053691 C187.860107,10.084115 189.00761,8.8583734 190.624546,8.8583734 C190.937501,8.8583734 191.172217,8.88445301 191.406934,8.93661223 L191.406934,6.77200479 C191.198297,6.71984557 191.01574,6.69376597 190.754944,6.69376597 C189.216247,6.69376597 187.834028,7.76302988 187.260276,9.45820438 L187.155958,9.45820438 L187.077719,6.98064165 L185.069589,6.98064165 C185.147828,8.154224 185.173908,9.43212477 185.173908,10.9186624 L185.173908,19.6031718 Z M192.684835,6.98064165 L197.353084,18.6121467 C197.457403,18.8990224 197.509562,19.0815796 197.509562,19.2119776 C197.509562,19.3423757 197.431323,19.5249329 197.327005,19.7596494 C196.805413,20.9332318 196.023024,21.8199384 195.397114,22.315451 C194.719044,22.8892023 193.962735,23.2543168 193.388984,23.4368741 L193.962735,25.3667651 C194.536487,25.2624466 195.65791,24.8712525 196.779333,23.8802274 C198.344109,22.5240878 199.465533,20.3073212 201.108548,15.9781063 L204.551056,6.98064165 L202.125653,6.98064165 L199.62201,14.3872502 C199.309055,15.3000365 199.048259,16.264982 198.813542,17.0212906 L198.761383,17.0212906 C198.552746,16.264982 198.239791,15.2739569 197.952915,14.4394094 L195.188477,6.98064165 L192.684835,6.98064165 Z" id="icon-gallery-copy-2" fill="#999999" sketch:type="MSShapeGroup"></path>
                <path d="M16.5919382,20.3924844 L10.0048783,1.08665032 L8.18758593,1.08665032 L14.1148037,20.3924844 L16.5919382,20.3924844 Z M7.67861683,12.9288161 L10.5133929,12.9288161 L11.0746222,14.7338387 L7.10329997,14.7333843 L7.67861683,12.9288161 Z M3.96768678,20.3924844 L1.57098765,20.3924844 L7.55728223,2.85077357 L8.50023837,6.31721667 L3.96768678,20.3924844 Z M2.1772062,14.7338387 L0,14.7338387 L0,12.9288161 L2.80114779,12.9292706 L2.1772062,14.7338387 Z M15.9679966,14.7338387 L18.1452028,14.7338387 L18.1452028,12.9288161 L15.344055,12.9292706 L15.9679966,14.7338387 Z" id="Fill-3" fill="#000000" sketch:type="MSShapeGroup"></path>
            </g>
        </g>
    </g>
</svg>