<?xml version="1.0" encoding="utf-8"?>
<!-- Generated by IcoMoon.io -->
<!DOCTYPE svg PUBLIC "-//W3C//DTD SVG 1.1//EN" "http://www.w3.org/Graphics/SVG/1.1/DTD/svg11.dtd">
<svg version="1.1" xmlns="http://www.w3.org/2000/svg" xmlns:xlink="http://www.w3.org/1999/xlink" width="16" height="16" viewBox="0 0 16 16">
<g id="icomoon-ignore">
	<line stroke-width="1" x1="" y1="" x2="" y2="" stroke="#449FDB" opacity=""></line>
</g>
	<path d="M15.857 14.476c0.19 0.191 0.19 0.499 0 0.691l-0.691 0.691c-0.191 0.19-0.5 0.19-0.691 0l-4.834-4.834c-0.053-0.053-0.088-0.114-0.111-0.181-0.992 0.725-2.209 1.157-3.531 1.157-3.313 0-6-2.687-6-6s2.687-6 6-6c3.313 0 6 2.687 6 6 0 1.322-0.432 2.54-1.157 3.531 0.066 0.024 0.128 0.058 0.181 0.111l4.834 4.834zM6 2c-2.209 0-4 1.791-4 4s1.791 4 4 4 4-1.791 4-4c0-2.209-1.791-4-4-4z" fill="#0088cc"></path>
</svg>
