<svg xmlns="http://www.w3.org/2000/svg" width="178" height="24" viewBox="0 0 178 24">
  <g fill="none" fill-rule="evenodd" transform="translate(-2)">
    <path fill="#000000" d="M27.376,17.44 L27.376,5.824 L25.264,5.824 L25.264,17.44 L27.376,17.44 Z M26.32,1.24 C25.552,1.24 25,1.816 25,2.56 C25,3.28 25.528,3.856 26.272,3.856 C27.112,3.856 27.64,3.28 27.616,2.56 C27.616,1.816 27.112,1.24 26.32,1.24 L26.32,1.24 Z M37.504,1 C33.184,1 29.992,4.36 29.992,9.496 C29.992,14.392 32.992,17.704 37.264,17.704 C41.392,17.704 44.776,14.752 44.776,9.184 C44.776,4.384 41.92,1 37.504,1 L37.504,1 Z M37.408,2.704 C40.888,2.704 42.568,6.064 42.568,9.28 C42.568,12.952 40.696,16 37.384,16 C34.096,16 32.224,12.904 32.224,9.448 C32.224,5.896 33.952,2.704 37.408,2.704 L37.408,2.704 Z M46.672,16.648 C47.536,17.224 49.24,17.68 50.8,17.68 C54.616,17.68 56.464,15.52 56.464,13.024 C56.464,10.648 55.072,9.328 52.336,8.272 C50.104,7.408 49.12,6.664 49.12,5.152 C49.12,4.048 49.96,2.728 52.168,2.728 C53.632,2.728 54.712,3.208 55.24,3.496 L55.816,1.792 C55.096,1.384 53.896,1 52.24,1 C49.096,1 47.008,2.872 47.008,5.392 C47.008,7.672 48.64,9.04 51.28,9.976 C53.464,10.816 54.328,11.68 54.328,13.192 C54.328,14.824 53.08,15.952 50.944,15.952 C49.504,15.952 48.136,15.472 47.2,14.896 L46.672,16.648 Z"/>
    <path fill="#999999" d="M3.916,18 L3.916,6.384 L1.804,6.384 L1.804,18 L3.916,18 Z M2.86,1.8 C2.092,1.8 1.54,2.376 1.54,3.12 C1.54,3.84 2.068,4.416 2.812,4.416 C3.652,4.416 4.18,3.84 4.156,3.12 C4.156,2.376 3.652,1.8 2.86,1.8 L2.86,1.8 Z M15.34,15.984 C14.74,16.248 13.948,16.56 12.748,16.56 C10.444,16.56 8.716,14.904 8.716,12.216 C8.716,9.792 10.156,7.824 12.82,7.824 C13.972,7.824 14.764,8.088 15.268,8.376 L15.748,6.744 C15.172,6.456 14.068,6.144 12.82,6.144 C9.028,6.144 6.58,8.736 6.58,12.312 C6.58,15.864 8.86,18.24 12.364,18.24 C13.924,18.24 15.148,17.856 15.7,17.568 L15.34,15.984 Z M22.948,6.12 C19.732,6.12 17.188,8.4 17.188,12.288 C17.188,15.96 19.612,18.264 22.756,18.264 C25.564,18.264 28.54,16.392 28.54,12.096 C28.54,8.544 26.284,6.12 22.948,6.12 L22.948,6.12 Z M22.9,7.704 C25.396,7.704 26.38,10.2 26.38,12.168 C26.38,14.784 24.868,16.68 22.852,16.68 C20.788,16.68 19.324,14.76 19.324,12.216 C19.324,10.008 20.404,7.704 22.9,7.704 L22.9,7.704 Z M31.204,18 L33.316,18 L33.316,11.016 C33.316,10.656 33.364,10.296 33.46,10.032 C33.82,8.856 34.9,7.872 36.292,7.872 C38.284,7.872 38.98,9.432 38.98,11.304 L38.98,18 L41.092,18 L41.092,11.064 C41.092,7.08 38.596,6.12 36.988,6.12 C35.068,6.12 33.724,7.2 33.148,8.304 L33.1,8.304 L32.98,6.384 L31.108,6.384 C31.18,7.344 31.204,8.328 31.204,9.528 L31.204,18 Z M57.772,6.384 L57.676,8.136 L57.628,8.136 C57.124,7.176 56.02,6.12 54.004,6.12 C51.34,6.12 48.772,8.352 48.772,12.288 C48.772,15.504 50.836,17.952 53.716,17.952 C55.516,17.952 56.764,17.088 57.412,16.008 L57.46,16.008 L57.46,17.304 C57.46,20.232 55.876,21.36 53.716,21.36 C52.276,21.36 51.076,20.928 50.308,20.448 L49.78,22.056 C50.716,22.68 52.252,23.016 53.644,23.016 C55.108,23.016 56.74,22.68 57.868,21.624 C58.996,20.616 59.524,18.984 59.524,16.32 L59.524,9.576 C59.524,8.16 59.572,7.224 59.62,6.384 L57.772,6.384 Z M57.436,13.056 C57.436,13.416 57.388,13.824 57.268,14.184 C56.812,15.528 55.636,16.344 54.34,16.344 C52.06,16.344 50.908,14.448 50.908,12.168 C50.908,9.48 52.348,7.776 54.364,7.776 C55.9,7.776 56.932,8.784 57.316,10.008 C57.412,10.296 57.436,10.608 57.436,10.968 L57.436,13.056 Z M71.38,18 C71.236,17.208 71.188,16.224 71.188,15.216 L71.188,10.872 C71.188,8.544 70.324,6.12 66.772,6.12 C65.308,6.12 63.916,6.528 62.956,7.152 L63.436,8.544 C64.252,8.016 65.38,7.68 66.46,7.68 C68.836,7.68 69.1,9.408 69.1,10.368 L69.1,10.608 C64.612,10.584 62.116,12.12 62.116,14.928 C62.116,16.608 63.316,18.264 65.668,18.264 C67.324,18.264 68.572,17.448 69.22,16.536 L69.292,16.536 L69.46,18 L71.38,18 Z M69.148,14.088 C69.148,14.304 69.1,14.544 69.028,14.76 C68.692,15.744 67.732,16.704 66.22,16.704 C65.14,16.704 64.228,16.056 64.228,14.688 C64.228,12.432 66.844,12.024 69.148,12.072 L69.148,14.088 Z M74.596,18 L76.708,18 L76.708,0.96 L74.596,0.96 L74.596,18 Z M80.26,18 L82.372,18 L82.372,0.96 L80.26,0.96 L80.26,18 Z M95.26,12.576 C95.284,12.36 95.332,12.024 95.332,11.592 C95.332,9.456 94.324,6.12 90.532,6.12 C87.148,6.12 85.084,8.88 85.084,12.384 C85.084,15.888 87.22,18.24 90.796,18.24 C92.644,18.24 93.916,17.856 94.66,17.52 L94.3,16.008 C93.508,16.344 92.596,16.608 91.084,16.608 C88.972,16.608 87.148,15.432 87.1,12.576 L95.26,12.576 Z M87.124,11.064 C87.292,9.6 88.228,7.632 90.364,7.632 C92.74,7.632 93.316,9.72 93.292,11.064 L87.124,11.064 Z M97.948,18 L100.036,18 L100.036,11.808 C100.036,11.448 100.084,11.112 100.132,10.824 C100.42,9.24 101.476,8.112 102.964,8.112 C103.252,8.112 103.468,8.136 103.684,8.184 L103.684,6.192 C103.492,6.144 103.324,6.12 103.084,6.12 C101.668,6.12 100.396,7.104 99.868,8.664 L99.772,8.664 L99.7,6.384 L97.852,6.384 C97.924,7.464 97.948,8.64 97.948,10.008 L97.948,18 Z M104.86,6.384 L109.156,17.088 C109.252,17.352 109.3,17.52 109.3,17.64 C109.3,17.76 109.228,17.928 109.132,18.144 C108.652,19.224 107.932,20.04 107.356,20.496 C106.732,21.024 106.036,21.36 105.508,21.528 L106.036,23.304 C106.564,23.208 107.596,22.848 108.628,21.936 C110.068,20.688 111.1,18.648 112.612,14.664 L115.78,6.384 L113.548,6.384 L111.244,13.2 C110.956,14.04 110.716,14.928 110.5,15.624 L110.452,15.624 C110.26,14.928 109.972,14.016 109.708,13.248 L107.164,6.384 L104.86,6.384 Z" transform="translate(64)"/>
    <path fill="#000000" d="M16,8.3640082 C16,8.2318422 15.9999765,8.17900544 15.9998827,8.11175591 C15.999751,8.01737516 15.9994889,7.93617275 15.9990621,7.85966191 C15.9979331,7.68946948 15.9960147,7.55913209 15.9927387,7.43566563 C15.9825572,7.0531313 15.958798,6.77706063 15.912164,6.51687136 C15.8548546,6.19767942 15.7622397,5.91591866 15.6261343,5.64883148 C15.4874422,5.37630138 15.3063217,5.12698058 15.0896861,4.91034504 C14.8726245,4.69351556 14.6231986,4.5123033 14.3511605,4.37386153 C14.0842735,4.23796752 13.8024893,4.14536956 13.4835856,4.08806844 C13.2242873,4.04143061 12.9506581,4.01783107 12.5645743,4.00726146 C12.4407632,4.0039817 12.3104574,4.00206454 12.1403812,4.00093818 C12.0060355,4.00018765 11.9003618,4 11.6359918,4 L6.3640082,4 C6.23196893,4 6.17913362,4.00002346 6.1119028,4.00011727 C6.01748469,4.00024902 5.93629609,4.00051113 5.85989617,4.00093792 C5.68955682,4.002066 5.55918415,4.00398388 5.43569693,4.00726048 C5.0493945,4.01783606 4.77569217,4.04144068 4.51664201,4.08806971 C4.19774473,4.14536968 3.91596064,4.23796779 3.64906619,4.37386563 C3.37667336,4.51248794 3.12709,4.69380362 2.91056417,4.91032946 C2.69391304,5.12698059 2.5127925,5.37630139 2.37409016,5.64885147 C2.23799483,5.91591908 2.14538004,6.19767992 2.08807289,6.516859 C2.04143686,6.77706004 2.01767757,7.05313044 2.00749612,7.43566225 C2.00399464,7.56762425 2.00193325,7.70678843 2.00117253,7.85967592 C2.00063879,7.936214 2.00031126,8.01740241 2.00014663,8.11177027 C2.00002932,8.17901249 2,8.23184337 2,8.3640082 L2,13.6359918 C2,13.7681566 2.00002932,13.8209875 2.00014663,13.8882297 C2.00031127,13.9826003 2.00063881,14.0637885 2.00117302,14.1404064 C2.00193326,14.2932143 2.00399471,14.4323782 2.00749603,14.5643344 C2.01767755,14.9468688 2.04143675,15.2229394 2.08807067,15.4831286 C2.14541181,15.802497 2.23805903,16.0844416 2.37409392,16.3513906 C2.51291204,16.6239369 2.69410206,16.8732053 2.91059531,17.089467 C3.12657494,17.3059091 3.37600799,17.4871734 3.64907425,17.6261385 C3.9159604,17.7620321 4.19774445,17.8546303 4.5166243,17.9119271 C4.77733933,17.9586553 5.05474724,17.9826002 5.43566226,17.9927386 C5.55918229,17.9960161 5.68955552,17.997934 5.85985349,17.9990618 C5.93629627,17.9994889 6.01748534,17.999751 6.1119028,17.9998827 C6.17913335,17.9999765 6.23196826,18 6.3640082,18 L11.6359918,18 C11.9003602,18 12.0060343,17.9998124 12.1403386,17.9990621 C12.3104536,17.9979355 12.440761,17.9960184 12.5645691,17.9927387 C12.9453073,17.982605 13.222635,17.958666 13.4835927,17.9119303 C13.80249,17.8546303 14.0842741,17.7620322 14.3511685,17.6261343 C14.6238659,17.4873571 14.873146,17.3061919 15.0896861,17.0894202 C15.3061349,16.873203 15.4873241,16.6239341 15.6261445,16.3513832 C15.7621756,16.0844418 15.8548229,15.8024972 15.9121618,15.483141 C15.9587979,15.22294 15.9825571,14.9468695 15.9927386,14.5643377 C15.9960147,14.4408694 15.9979331,14.3105325 15.9990618,14.1403816 C15.9994889,14.0638292 15.999751,13.9826271 15.9998827,13.8882441 C15.9999765,13.8209946 16,13.7681578 16,13.6359918 L16,8.3640082 Z"/>
  </g>
</svg>
