<svg xmlns="http://www.w3.org/2000/svg" width="218" height="25" viewBox="0 0 218 25">
  <g fill="none" fill-rule="evenodd">
    <rect width="14" height="19" x="2" y="1" fill="#000000" transform="rotate(-9 9 10.5)"/>
    <path fill="#000000" d="M26.096,18.44 L28.16,18.44 L28.16,11.432 C28.16,11.072 28.208,10.712 28.328,10.4 C28.664,9.344 29.624,8.288 30.944,8.288 C32.552,8.288 33.368,9.632 33.368,11.48 L33.368,18.44 L35.432,18.44 L35.432,11.264 C35.432,10.88 35.504,10.496 35.6,10.208 C35.96,9.176 36.896,8.288 38.096,8.288 C39.8,8.288 40.616,9.632 40.616,11.864 L40.616,18.44 L42.68,18.44 L42.68,11.6 C42.68,7.568 40.4,6.56 38.864,6.56 C37.76,6.56 36.992,6.848 36.296,7.376 C35.816,7.736 35.36,8.24 35,8.888 L34.952,8.888 C34.448,7.52 33.248,6.56 31.664,6.56 C29.744,6.56 28.664,7.592 28.016,8.696 L27.944,8.696 L27.848,6.824 L26,6.824 C26.072,7.784 26.096,8.768 26.096,9.968 L26.096,18.44 Z M54.464,18.44 C54.32,17.648 54.272,16.664 54.272,15.656 L54.272,11.312 C54.272,8.984 53.408,6.56 49.856,6.56 C48.392,6.56 47,6.968 46.04,7.592 L46.52,8.984 C47.336,8.456 48.464,8.12 49.544,8.12 C51.92,8.12 52.184,9.848 52.184,10.808 L52.184,11.048 C47.696,11.024 45.2,12.56 45.2,15.368 C45.2,17.048 46.4,18.704 48.752,18.704 C50.408,18.704 51.656,17.888 52.304,16.976 L52.376,16.976 L52.544,18.44 L54.464,18.44 Z M52.232,14.528 C52.232,14.744 52.184,14.984 52.112,15.2 C51.776,16.184 50.816,17.144 49.304,17.144 C48.224,17.144 47.312,16.496 47.312,15.128 C47.312,12.872 49.928,12.464 52.232,12.512 L52.232,14.528 Z M65.6,16.424 C65,16.688 64.208,17 63.008,17 C60.704,17 58.976,15.344 58.976,12.656 C58.976,10.232 60.416,8.264 63.08,8.264 C64.232,8.264 65.024,8.528 65.528,8.816 L66.008,7.184 C65.432,6.896 64.328,6.584 63.08,6.584 C59.288,6.584 56.84,9.176 56.84,12.752 C56.84,16.304 59.12,18.68 62.624,18.68 C64.184,18.68 65.408,18.296 65.96,18.008 L65.6,16.424 Z M75.056,2 C70.736,2 67.544,5.36 67.544,10.496 C67.544,15.392 70.544,18.704 74.816,18.704 C78.944,18.704 82.328,15.752 82.328,10.184 C82.328,5.384 79.472,2 75.056,2 L75.056,2 Z M74.96,3.704 C78.44,3.704 80.12,7.064 80.12,10.28 C80.12,13.952 78.248,17 74.936,17 C71.648,17 69.776,13.904 69.776,10.448 C69.776,6.896 71.504,3.704 74.96,3.704 L74.96,3.704 Z M84.224,17.648 C85.088,18.224 86.792,18.68 88.352,18.68 C92.168,18.68 94.016,16.52 94.016,14.024 C94.016,11.648 92.624,10.328 89.888,9.272 C87.656,8.408 86.672,7.664 86.672,6.152 C86.672,5.048 87.512,3.728 89.72,3.728 C91.184,3.728 92.264,4.208 92.792,4.496 L93.368,2.792 C92.648,2.384 91.448,2 89.792,2 C86.648,2 84.56,3.872 84.56,6.392 C84.56,8.672 86.192,10.04 88.832,10.976 C91.016,11.816 91.88,12.68 91.88,14.192 C91.88,15.824 90.632,16.952 88.496,16.952 C87.056,16.952 85.688,16.472 84.752,15.896 L84.224,17.648 Z"/>
    <path fill="#999999" d="M3.916,18 L3.916,6.384 L1.804,6.384 L1.804,18 L3.916,18 Z M2.86,1.8 C2.092,1.8 1.54,2.376 1.54,3.12 C1.54,3.84 2.068,4.416 2.812,4.416 C3.652,4.416 4.18,3.84 4.156,3.12 C4.156,2.376 3.652,1.8 2.86,1.8 L2.86,1.8 Z M15.34,15.984 C14.74,16.248 13.948,16.56 12.748,16.56 C10.444,16.56 8.716,14.904 8.716,12.216 C8.716,9.792 10.156,7.824 12.82,7.824 C13.972,7.824 14.764,8.088 15.268,8.376 L15.748,6.744 C15.172,6.456 14.068,6.144 12.82,6.144 C9.028,6.144 6.58,8.736 6.58,12.312 C6.58,15.864 8.86,18.24 12.364,18.24 C13.924,18.24 15.148,17.856 15.7,17.568 L15.34,15.984 Z M22.948,6.12 C19.732,6.12 17.188,8.4 17.188,12.288 C17.188,15.96 19.612,18.264 22.756,18.264 C25.564,18.264 28.54,16.392 28.54,12.096 C28.54,8.544 26.284,6.12 22.948,6.12 L22.948,6.12 Z M22.9,7.704 C25.396,7.704 26.38,10.2 26.38,12.168 C26.38,14.784 24.868,16.68 22.852,16.68 C20.788,16.68 19.324,14.76 19.324,12.216 C19.324,10.008 20.404,7.704 22.9,7.704 L22.9,7.704 Z M31.204,18 L33.316,18 L33.316,11.016 C33.316,10.656 33.364,10.296 33.46,10.032 C33.82,8.856 34.9,7.872 36.292,7.872 C38.284,7.872 38.98,9.432 38.98,11.304 L38.98,18 L41.092,18 L41.092,11.064 C41.092,7.08 38.596,6.12 36.988,6.12 C35.068,6.12 33.724,7.2 33.148,8.304 L33.1,8.304 L32.98,6.384 L31.108,6.384 C31.18,7.344 31.204,8.328 31.204,9.528 L31.204,18 Z M57.772,6.384 L57.676,8.136 L57.628,8.136 C57.124,7.176 56.02,6.12 54.004,6.12 C51.34,6.12 48.772,8.352 48.772,12.288 C48.772,15.504 50.836,17.952 53.716,17.952 C55.516,17.952 56.764,17.088 57.412,16.008 L57.46,16.008 L57.46,17.304 C57.46,20.232 55.876,21.36 53.716,21.36 C52.276,21.36 51.076,20.928 50.308,20.448 L49.78,22.056 C50.716,22.68 52.252,23.016 53.644,23.016 C55.108,23.016 56.74,22.68 57.868,21.624 C58.996,20.616 59.524,18.984 59.524,16.32 L59.524,9.576 C59.524,8.16 59.572,7.224 59.62,6.384 L57.772,6.384 Z M57.436,13.056 C57.436,13.416 57.388,13.824 57.268,14.184 C56.812,15.528 55.636,16.344 54.34,16.344 C52.06,16.344 50.908,14.448 50.908,12.168 C50.908,9.48 52.348,7.776 54.364,7.776 C55.9,7.776 56.932,8.784 57.316,10.008 C57.412,10.296 57.436,10.608 57.436,10.968 L57.436,13.056 Z M71.38,18 C71.236,17.208 71.188,16.224 71.188,15.216 L71.188,10.872 C71.188,8.544 70.324,6.12 66.772,6.12 C65.308,6.12 63.916,6.528 62.956,7.152 L63.436,8.544 C64.252,8.016 65.38,7.68 66.46,7.68 C68.836,7.68 69.1,9.408 69.1,10.368 L69.1,10.608 C64.612,10.584 62.116,12.12 62.116,14.928 C62.116,16.608 63.316,18.264 65.668,18.264 C67.324,18.264 68.572,17.448 69.22,16.536 L69.292,16.536 L69.46,18 L71.38,18 Z M69.148,14.088 C69.148,14.304 69.1,14.544 69.028,14.76 C68.692,15.744 67.732,16.704 66.22,16.704 C65.14,16.704 64.228,16.056 64.228,14.688 C64.228,12.432 66.844,12.024 69.148,12.072 L69.148,14.088 Z M74.596,18 L76.708,18 L76.708,0.96 L74.596,0.96 L74.596,18 Z M80.26,18 L82.372,18 L82.372,0.96 L80.26,0.96 L80.26,18 Z M95.26,12.576 C95.284,12.36 95.332,12.024 95.332,11.592 C95.332,9.456 94.324,6.12 90.532,6.12 C87.148,6.12 85.084,8.88 85.084,12.384 C85.084,15.888 87.22,18.24 90.796,18.24 C92.644,18.24 93.916,17.856 94.66,17.52 L94.3,16.008 C93.508,16.344 92.596,16.608 91.084,16.608 C88.972,16.608 87.148,15.432 87.1,12.576 L95.26,12.576 Z M87.124,11.064 C87.292,9.6 88.228,7.632 90.364,7.632 C92.74,7.632 93.316,9.72 93.292,11.064 L87.124,11.064 Z M97.948,18 L100.036,18 L100.036,11.808 C100.036,11.448 100.084,11.112 100.132,10.824 C100.42,9.24 101.476,8.112 102.964,8.112 C103.252,8.112 103.468,8.136 103.684,8.184 L103.684,6.192 C103.492,6.144 103.324,6.12 103.084,6.12 C101.668,6.12 100.396,7.104 99.868,8.664 L99.772,8.664 L99.7,6.384 L97.852,6.384 C97.924,7.464 97.948,8.64 97.948,10.008 L97.948,18 Z M104.86,6.384 L109.156,17.088 C109.252,17.352 109.3,17.52 109.3,17.64 C109.3,17.76 109.228,17.928 109.132,18.144 C108.652,19.224 107.932,20.04 107.356,20.496 C106.732,21.024 106.036,21.36 105.508,21.528 L106.036,23.304 C106.564,23.208 107.596,22.848 108.628,21.936 C110.068,20.688 111.1,18.648 112.612,14.664 L115.78,6.384 L113.548,6.384 L111.244,13.2 C110.956,14.04 110.716,14.928 110.5,15.624 L110.452,15.624 C110.26,14.928 109.972,14.016 109.708,13.248 L107.164,6.384 L104.86,6.384 Z" transform="translate(101.568 1)"/>
  </g>
</svg>
