<svg xmlns="http://www.w3.org/2000/svg" width="235" height="24" viewBox="0 0 235 24">
  <g fill="none" fill-rule="evenodd" transform="translate(-3)">
    <path fill="#000000" d="M26,6.424 L29.504,18.04 L31.424,18.04 L33.296,12.52 C33.704,11.272 34.064,10.072 34.352,8.68 L34.4,8.68 C34.688,10.048 35.024,11.2 35.432,12.496 L37.208,18.04 L39.128,18.04 L42.872,6.424 L40.784,6.424 L39.128,12.256 C38.744,13.624 38.432,14.848 38.24,16.024 L38.168,16.024 C37.904,14.848 37.568,13.624 37.136,12.232 L35.336,6.424 L33.56,6.424 L31.664,12.352 C31.28,13.6 30.896,14.848 30.632,16.024 L30.56,16.024 C30.344,14.824 30.032,13.624 29.696,12.328 L28.16,6.424 L26,6.424 Z M53.24,18.04 C53.096,17.248 53.048,16.264 53.048,15.256 L53.048,10.912 C53.048,8.584 52.184,6.16 48.632,6.16 C47.168,6.16 45.776,6.568 44.816,7.192 L45.296,8.584 C46.112,8.056 47.24,7.72 48.32,7.72 C50.696,7.72 50.96,9.448 50.96,10.408 L50.96,10.648 C46.472,10.624 43.976,12.16 43.976,14.968 C43.976,16.648 45.176,18.304 47.528,18.304 C49.184,18.304 50.432,17.488 51.08,16.576 L51.152,16.576 L51.32,18.04 L53.24,18.04 Z M51.008,14.128 C51.008,14.344 50.96,14.584 50.888,14.8 C50.552,15.784 49.592,16.744 48.08,16.744 C47,16.744 46.088,16.096 46.088,14.728 C46.088,12.472 48.704,12.064 51.008,12.112 L51.008,14.128 Z M56.84,3.64 L56.84,6.424 L55.04,6.424 L55.04,8.032 L56.84,8.032 L56.84,14.368 C56.84,15.736 57.056,16.768 57.656,17.392 C58.16,17.968 58.952,18.28 59.936,18.28 C60.752,18.28 61.4,18.16 61.808,17.992 L61.712,16.408 C61.448,16.48 61.04,16.552 60.488,16.552 C59.312,16.552 58.904,15.736 58.904,14.296 L58.904,8.032 L61.928,8.032 L61.928,6.424 L58.904,6.424 L58.904,3.088 L56.84,3.64 Z M72.08,16.024 C71.48,16.288 70.688,16.6 69.488,16.6 C67.184,16.6 65.456,14.944 65.456,12.256 C65.456,9.832 66.896,7.864 69.56,7.864 C70.712,7.864 71.504,8.128 72.008,8.416 L72.488,6.784 C71.912,6.496 70.808,6.184 69.56,6.184 C65.768,6.184 63.32,8.776 63.32,12.352 C63.32,15.904 65.6,18.28 69.104,18.28 C70.664,18.28 71.888,17.896 72.44,17.608 L72.08,16.024 Z M74.912,18.04 L77.024,18.04 L77.024,11.032 C77.024,10.624 77.048,10.312 77.168,10.024 C77.552,8.872 78.632,7.912 80,7.912 C81.992,7.912 82.688,9.496 82.688,11.368 L82.688,18.04 L84.8,18.04 L84.8,11.128 C84.8,7.12 82.304,6.16 80.744,6.16 C79.952,6.16 79.208,6.4 78.584,6.76 C77.936,7.12 77.408,7.648 77.072,8.248 L77.024,8.248 L77.024,1 L74.912,1 L74.912,18.04 Z M94.856,1.6 C90.536,1.6 87.344,4.96 87.344,10.096 C87.344,14.992 90.344,18.304 94.616,18.304 C98.744,18.304 102.128,15.352 102.128,9.784 C102.128,4.984 99.272,1.6 94.856,1.6 L94.856,1.6 Z M94.76,3.304 C98.24,3.304 99.92,6.664 99.92,9.88 C99.92,13.552 98.048,16.6 94.736,16.6 C91.448,16.6 89.576,13.504 89.576,10.048 C89.576,6.496 91.304,3.304 94.76,3.304 L94.76,3.304 Z M104.024,17.248 C104.888,17.824 106.592,18.28 108.152,18.28 C111.968,18.28 113.816,16.12 113.816,13.624 C113.816,11.248 112.424,9.928 109.688,8.872 C107.456,8.008 106.472,7.264 106.472,5.752 C106.472,4.648 107.312,3.328 109.52,3.328 C110.984,3.328 112.064,3.808 112.592,4.096 L113.168,2.392 C112.448,1.984 111.248,1.6 109.592,1.6 C106.448,1.6 104.36,3.472 104.36,5.992 C104.36,8.272 105.992,9.64 108.632,10.576 C110.816,11.416 111.68,12.28 111.68,13.792 C111.68,15.424 110.432,16.552 108.296,16.552 C106.856,16.552 105.488,16.072 104.552,15.496 L104.024,17.248 Z"/>
    <path fill="#999999" d="M3.916,18 L3.916,6.384 L1.804,6.384 L1.804,18 L3.916,18 Z M2.86,1.8 C2.092,1.8 1.54,2.376 1.54,3.12 C1.54,3.84 2.068,4.416 2.812,4.416 C3.652,4.416 4.18,3.84 4.156,3.12 C4.156,2.376 3.652,1.8 2.86,1.8 L2.86,1.8 Z M15.34,15.984 C14.74,16.248 13.948,16.56 12.748,16.56 C10.444,16.56 8.716,14.904 8.716,12.216 C8.716,9.792 10.156,7.824 12.82,7.824 C13.972,7.824 14.764,8.088 15.268,8.376 L15.748,6.744 C15.172,6.456 14.068,6.144 12.82,6.144 C9.028,6.144 6.58,8.736 6.58,12.312 C6.58,15.864 8.86,18.24 12.364,18.24 C13.924,18.24 15.148,17.856 15.7,17.568 L15.34,15.984 Z M22.948,6.12 C19.732,6.12 17.188,8.4 17.188,12.288 C17.188,15.96 19.612,18.264 22.756,18.264 C25.564,18.264 28.54,16.392 28.54,12.096 C28.54,8.544 26.284,6.12 22.948,6.12 L22.948,6.12 Z M22.9,7.704 C25.396,7.704 26.38,10.2 26.38,12.168 C26.38,14.784 24.868,16.68 22.852,16.68 C20.788,16.68 19.324,14.76 19.324,12.216 C19.324,10.008 20.404,7.704 22.9,7.704 L22.9,7.704 Z M31.204,18 L33.316,18 L33.316,11.016 C33.316,10.656 33.364,10.296 33.46,10.032 C33.82,8.856 34.9,7.872 36.292,7.872 C38.284,7.872 38.98,9.432 38.98,11.304 L38.98,18 L41.092,18 L41.092,11.064 C41.092,7.08 38.596,6.12 36.988,6.12 C35.068,6.12 33.724,7.2 33.148,8.304 L33.1,8.304 L32.98,6.384 L31.108,6.384 C31.18,7.344 31.204,8.328 31.204,9.528 L31.204,18 Z M57.772,6.384 L57.676,8.136 L57.628,8.136 C57.124,7.176 56.02,6.12 54.004,6.12 C51.34,6.12 48.772,8.352 48.772,12.288 C48.772,15.504 50.836,17.952 53.716,17.952 C55.516,17.952 56.764,17.088 57.412,16.008 L57.46,16.008 L57.46,17.304 C57.46,20.232 55.876,21.36 53.716,21.36 C52.276,21.36 51.076,20.928 50.308,20.448 L49.78,22.056 C50.716,22.68 52.252,23.016 53.644,23.016 C55.108,23.016 56.74,22.68 57.868,21.624 C58.996,20.616 59.524,18.984 59.524,16.32 L59.524,9.576 C59.524,8.16 59.572,7.224 59.62,6.384 L57.772,6.384 Z M57.436,13.056 C57.436,13.416 57.388,13.824 57.268,14.184 C56.812,15.528 55.636,16.344 54.34,16.344 C52.06,16.344 50.908,14.448 50.908,12.168 C50.908,9.48 52.348,7.776 54.364,7.776 C55.9,7.776 56.932,8.784 57.316,10.008 C57.412,10.296 57.436,10.608 57.436,10.968 L57.436,13.056 Z M71.38,18 C71.236,17.208 71.188,16.224 71.188,15.216 L71.188,10.872 C71.188,8.544 70.324,6.12 66.772,6.12 C65.308,6.12 63.916,6.528 62.956,7.152 L63.436,8.544 C64.252,8.016 65.38,7.68 66.46,7.68 C68.836,7.68 69.1,9.408 69.1,10.368 L69.1,10.608 C64.612,10.584 62.116,12.12 62.116,14.928 C62.116,16.608 63.316,18.264 65.668,18.264 C67.324,18.264 68.572,17.448 69.22,16.536 L69.292,16.536 L69.46,18 L71.38,18 Z M69.148,14.088 C69.148,14.304 69.1,14.544 69.028,14.76 C68.692,15.744 67.732,16.704 66.22,16.704 C65.14,16.704 64.228,16.056 64.228,14.688 C64.228,12.432 66.844,12.024 69.148,12.072 L69.148,14.088 Z M74.596,18 L76.708,18 L76.708,0.96 L74.596,0.96 L74.596,18 Z M80.26,18 L82.372,18 L82.372,0.96 L80.26,0.96 L80.26,18 Z M95.26,12.576 C95.284,12.36 95.332,12.024 95.332,11.592 C95.332,9.456 94.324,6.12 90.532,6.12 C87.148,6.12 85.084,8.88 85.084,12.384 C85.084,15.888 87.22,18.24 90.796,18.24 C92.644,18.24 93.916,17.856 94.66,17.52 L94.3,16.008 C93.508,16.344 92.596,16.608 91.084,16.608 C88.972,16.608 87.148,15.432 87.1,12.576 L95.26,12.576 Z M87.124,11.064 C87.292,9.6 88.228,7.632 90.364,7.632 C92.74,7.632 93.316,9.72 93.292,11.064 L87.124,11.064 Z M97.948,18 L100.036,18 L100.036,11.808 C100.036,11.448 100.084,11.112 100.132,10.824 C100.42,9.24 101.476,8.112 102.964,8.112 C103.252,8.112 103.468,8.136 103.684,8.184 L103.684,6.192 C103.492,6.144 103.324,6.12 103.084,6.12 C101.668,6.12 100.396,7.104 99.868,8.664 L99.772,8.664 L99.7,6.384 L97.852,6.384 C97.924,7.464 97.948,8.64 97.948,10.008 L97.948,18 Z M104.86,6.384 L109.156,17.088 C109.252,17.352 109.3,17.52 109.3,17.64 C109.3,17.76 109.228,17.928 109.132,18.144 C108.652,19.224 107.932,20.04 107.356,20.496 C106.732,21.024 106.036,21.36 105.508,21.528 L106.036,23.304 C106.564,23.208 107.596,22.848 108.628,21.936 C110.068,20.688 111.1,18.648 112.612,14.664 L115.78,6.384 L113.548,6.384 L111.244,13.2 C110.956,14.04 110.716,14.928 110.5,15.624 L110.452,15.624 C110.26,14.928 109.972,14.016 109.708,13.248 L107.164,6.384 L104.86,6.384 Z" transform="translate(122)"/>
    <circle cx="10" cy="12" r="7" fill="#000000" opacity=".853"/>
  </g>
</svg>
