<?xml version="1.0" encoding="UTF-8" standalone="no"?>
<svg width="291px" height="26px" viewBox="0 0 291 26" version="1.1" xmlns="http://www.w3.org/2000/svg" xmlns:xlink="http://www.w3.org/1999/xlink" xmlns:sketch="http://www.bohemiancoding.com/sketch/ns">
    <!-- Generator: Sketch 3.3.2 (12043) - http://www.bohemiancoding.com/sketch -->
    <title>applewatchicongallery-logo</title>
    <desc>Created with Sketch.</desc>
    <defs></defs>
    <g id="Page-1" stroke="none" stroke-width="1" fill="none" fill-rule="evenodd" sketch:type="MSPage">
        <g id="applewatchicongallery-logo" sketch:type="MSArtboardGroup" transform="translate(-78.000000, -104.000000)">
            <g id="applewatch" sketch:type="MSLayerGroup" transform="translate(79.346601, 105.000000)">
                <g id="Watch" stroke="#000000" stroke-width="1.5" sketch:type="MSShapeGroup">
                    <path d="M8.14398758,21.0969941 L3.22441219,21.0969941 C2.36241997,21.0969941 1.63399269,18.6693925 1.43424334,17.2835831 C1.66907841,17.3696849 1.92265244,17.4172161 2.1869914,17.4172161 L9.18100967,17.4172161 C9.44534864,17.4172161 9.69972007,17.3696849 9.93415643,17.2835831 C9.73400838,18.6693925 9.0055811,21.0969941 8.14398758,21.0969941 Z" id="Fill-7"></path>
                    <path d="M8.14398758,0.152912109 C8.99800577,0.152912109 9.72164864,2.5653192 9.92897332,3.96437506 C9.69533435,3.87944212 9.44335513,3.83307965 9.18100967,3.83307965 L2.1873901,3.83307965 C1.92504464,3.83307965 1.67306542,3.87944212 1.43982516,3.96437506 C1.64635243,2.5653192 2.3699953,0.152912109 3.22441219,0.152912109 L8.14398758,0.152912109 Z" id="Fill-8"></path>
                    <path d="M11.3331993,6.15545468 C11.3331993,4.99873041 10.3651525,4.05278009 9.18140837,4.05278009 L2.1873901,4.05278009 C1.00364593,4.05278009 0.0355991649,4.99873041 0.0355991649,6.15545468 L0.0355991649,15.0936723 C0.0355991649,16.2496174 1.00364593,17.1955677 2.1873901,17.1955677 L9.18140837,17.1955677 C10.3651525,17.1955677 11.3331993,16.2496174 11.3331993,15.0936723 L11.333199,7.20776595 L11.3331993,6.15545468 Z" id="Fill-9"></path>
                </g>
                <path d="M31.3987208,13.1609453 L33.2764526,18.6898221 L35.7018561,18.6898221 L29.7035463,1.11216651 L26.9651875,1.11216651 L20.9929573,18.6898221 L23.340122,18.6898221 L25.1656946,13.1609453 L31.3987208,13.1609453 Z M25.6351275,11.3875319 L27.3563816,6.30200844 C27.6954165,5.23274453 27.9822922,4.16348061 28.2430883,3.1202963 L28.2952475,3.1202963 C28.5560436,4.137401 28.8168396,5.18058531 29.2080338,6.32808805 L30.9292879,11.3875319 L25.6351275,11.3875319 Z M38.1272596,23.8535844 L40.3961854,23.8535844 L40.3961854,16.9946476 L40.4483447,16.9946476 C41.2046533,18.2464687 42.6651113,18.9766978 44.3342062,18.9766978 C47.3072815,18.9766978 50.0717199,16.7338515 50.0717199,12.1959998 C50.0717199,8.36229745 47.7767144,5.78041629 44.7254003,5.78041629 C42.6651113,5.78041629 41.1785737,6.69320255 40.2397078,8.23189941 L40.1875486,8.23189941 L40.0832302,6.06729197 L38.0229411,6.06729197 C38.0751004,7.26695392 38.1272596,8.57093431 38.1272596,10.18787 L38.1272596,23.8535844 Z M40.3961854,11.3875319 C40.3961854,11.0745766 40.4744243,10.7355417 40.5526631,10.4486661 C40.9960164,8.72741195 42.4564745,7.60598882 44.0212509,7.60598882 C46.4466544,7.60598882 47.7767144,9.77059626 47.7767144,12.3003182 C47.7767144,15.1951547 46.3684156,17.1772048 43.9430121,17.1772048 C42.2999968,17.1772048 40.9177776,16.0818613 40.5005039,14.4910052 C40.4483447,14.2041296 40.3961854,13.8911743 40.3961854,13.5521394 L40.3961854,11.3875319 Z M52.9665563,23.8535844 L55.2354822,23.8535844 L55.2354822,16.9946476 L55.2876414,16.9946476 C56.04395,18.2464687 57.5044081,18.9766978 59.173503,18.9766978 C62.1465782,18.9766978 64.9110167,16.7338515 64.9110167,12.1959998 C64.9110167,8.36229745 62.6160112,5.78041629 59.5646971,5.78041629 C57.5044081,5.78041629 56.0178704,6.69320255 55.0790046,8.23189941 L55.0268453,8.23189941 L54.9225269,6.06729197 L52.8622379,6.06729197 C52.9143971,7.26695392 52.9665563,8.57093431 52.9665563,10.18787 L52.9665563,23.8535844 Z M55.2354822,11.3875319 C55.2354822,11.0745766 55.313721,10.7355417 55.3919599,10.4486661 C55.8353132,8.72741195 57.2957712,7.60598882 58.8605477,7.60598882 C61.2859512,7.60598882 62.6160112,9.77059626 62.6160112,12.3003182 C62.6160112,15.1951547 61.2077124,17.1772048 58.7823089,17.1772048 C57.1392936,17.1772048 55.7570744,16.0818613 55.3398006,14.4910052 C55.2876414,14.2041296 55.2354822,13.8911743 55.2354822,13.5521394 L55.2354822,11.3875319 Z M67.8058531,18.6898221 L70.1008586,18.6898221 L70.1008586,0.173300639 L67.8058531,0.173300639 L67.8058531,18.6898221 Z M84.1056079,12.7958307 C84.1316875,12.5611143 84.1838467,12.1959998 84.1838467,11.7265668 C84.1838467,9.40548175 83.0885032,5.78041629 78.9679252,5.78041629 C75.2907005,5.78041629 73.0478542,8.77957117 73.0478542,12.5871939 C73.0478542,16.3948166 75.3689393,18.9506182 79.2548009,18.9506182 C81.2629307,18.9506182 82.6451499,18.5333444 83.4536177,18.1682299 L83.0624236,16.5252146 C82.2017965,16.8903292 81.2107714,17.1772048 79.5677562,17.1772048 C77.2727507,17.1772048 75.2907005,15.8993041 75.2385413,12.7958307 L84.1056079,12.7958307 Z M75.2646209,11.1528155 C75.4471781,9.5619594 76.4642828,7.42343157 78.7853679,7.42343157 C81.3672491,7.42343157 81.9931597,9.69235744 81.9670801,11.1528155 L75.2646209,11.1528155 Z M96.9367749,18.6898221 L99.4404172,9.53587979 C100.092407,7.26695392 100.483602,5.54569982 100.796557,3.7983661 L100.848716,3.7983661 C101.083432,5.57177943 101.448547,7.29303353 101.996219,9.53587979 L104.212985,18.6898221 L106.58623,18.6898221 L111.567435,1.11216651 L109.24635,1.11216651 L106.925265,9.97923312 C106.377593,12.1699202 105.88208,14.1258907 105.516966,16.0557817 L105.464807,16.0557817 C105.20401,14.2041296 104.734578,12.1177609 104.239065,10.0313923 L102.100537,1.11216651 L99.7272929,1.11216651 L97.3801282,9.97923312 C96.7802972,12.248159 96.2326255,14.3345276 95.9457498,16.0818613 L95.8935906,16.0818613 C95.5806353,14.3866868 95.1112023,12.1959998 94.5896102,10.0053127 L92.5032416,1.11216651 L90.1039177,1.11216651 L94.5635306,18.6898221 L96.9367749,18.6898221 Z M121.894959,18.6898221 C121.738482,17.829195 121.686323,16.7599311 121.686323,15.6645876 L121.686323,10.9441786 C121.686323,8.41445666 120.747457,5.78041629 116.887675,5.78041629 C115.296819,5.78041629 113.784201,6.22376962 112.741017,6.90183942 L113.262609,8.41445666 C114.149316,7.84070529 115.375057,7.47559078 116.54864,7.47559078 C119.130521,7.47559078 119.417397,9.35332254 119.417397,10.3965068 L119.417397,10.6573029 C114.54051,10.6312233 111.828231,12.3003182 111.828231,15.3516323 C111.828231,17.1772048 113.132211,18.9766978 115.688013,18.9766978 C117.487506,18.9766978 118.843645,18.0899911 119.547795,17.098966 L119.626034,17.098966 L119.808591,18.6898221 L121.894959,18.6898221 Z M119.469556,14.438846 C119.469556,14.6735625 119.417397,14.9343586 119.339158,15.169075 C118.974043,16.238339 117.930859,17.2815233 116.287844,17.2815233 C115.114261,17.2815233 114.123236,16.5773739 114.123236,15.0908362 C114.123236,12.6393531 116.965914,12.1959998 119.469556,12.248159 L119.469556,14.438846 Z M125.806901,3.04205748 L125.806901,6.06729197 L123.85093,6.06729197 L123.85093,7.81462568 L125.806901,7.81462568 L125.806901,14.6996421 C125.806901,16.1861797 126.041617,17.3076029 126.693607,17.9856727 C127.241279,18.6115833 128.101906,18.9506182 129.17117,18.9506182 C130.057877,18.9506182 130.762026,18.8202201 131.205379,18.6376629 L131.101061,16.9164088 C130.814185,16.9946476 130.370832,17.0728864 129.771001,17.0728864 C128.4931,17.0728864 128.049747,16.1861797 128.049747,14.6214033 L128.049747,7.81462568 L131.335777,7.81462568 L131.335777,6.06729197 L128.049747,6.06729197 L128.049747,2.44222651 L125.806901,3.04205748 Z M142.367451,16.499135 C141.715461,16.7860107 140.854834,17.1250456 139.550854,17.1250456 C137.047211,17.1250456 135.16948,15.3255527 135.16948,12.4046366 C135.16948,9.77059626 136.734256,7.63206843 139.629093,7.63206843 C140.880914,7.63206843 141.741541,7.91894411 142.289213,8.23189941 L142.810805,6.45848609 C142.184894,6.14553079 140.985232,5.80649589 139.629093,5.80649589 C135.508515,5.80649589 132.848395,8.62309352 132.848395,12.5089551 C132.848395,16.368737 135.325957,18.9506182 139.13358,18.9506182 C140.828755,18.9506182 142.158815,18.5333444 142.758646,18.2203891 L142.367451,16.499135 Z M145.444845,18.6898221 L147.739851,18.6898221 L147.739851,11.0745766 C147.739851,10.6312233 147.76593,10.2921884 147.896328,9.97923312 C148.313602,8.72741195 149.487184,7.68422765 150.973722,7.68422765 C153.138329,7.68422765 153.894638,9.40548175 153.894638,11.4396911 L153.894638,18.6898221 L156.189643,18.6898221 L156.189643,11.1788951 C156.189643,6.82360059 153.477364,5.78041629 151.78219,5.78041629 C150.921563,5.78041629 150.113095,6.04121236 149.435025,6.43240648 C148.730876,6.82360059 148.157124,7.39735196 147.79201,8.04934215 L147.739851,8.04934215 L147.739851,0.173300639 L145.444845,0.173300639 L145.444845,18.6898221 Z" id="Apple-Watch" fill="#000000" sketch:type="MSShapeGroup"></path>
                <path d="M167.542966,18.6463561 L167.542966,6.02382596 L165.247961,6.02382596 L165.247961,18.6463561 L167.542966,18.6463561 Z M166.395463,1.04262089 C165.560916,1.04262089 164.961085,1.66853148 164.961085,2.47699932 C164.961085,3.25938755 165.534836,3.88529813 166.343304,3.88529813 C167.25609,3.88529813 167.829842,3.25938755 167.803762,2.47699932 C167.803762,1.66853148 167.25609,1.04262089 166.395463,1.04262089 L166.395463,1.04262089 Z M179.956859,16.455669 C179.304869,16.7425447 178.444242,17.0815796 177.140262,17.0815796 C174.636619,17.0815796 172.758888,15.2820867 172.758888,12.3611706 C172.758888,9.72713025 174.323664,7.58860242 177.2185,7.58860242 C178.470322,7.58860242 179.330949,7.8754781 179.87862,8.18843339 L180.400213,6.41502007 C179.774302,6.10206478 178.57464,5.76302988 177.2185,5.76302988 C173.097922,5.76302988 170.437802,8.57962751 170.437802,12.4654891 C170.437802,16.325271 172.915365,18.9071521 176.722988,18.9071521 C178.418162,18.9071521 179.748222,18.4898784 180.348053,18.1769231 L179.956859,16.455669 Z M188.224095,5.73695027 C184.729427,5.73695027 181.964989,8.214513 181.964989,12.4394094 C181.964989,16.4295894 184.599029,18.9332318 188.015458,18.9332318 C191.066772,18.9332318 194.300643,16.8990224 194.300643,12.2307726 C194.300643,8.37099065 191.84916,5.73695027 188.224095,5.73695027 L188.224095,5.73695027 Z M188.171936,7.45820438 C190.884215,7.45820438 191.953479,10.1704836 191.953479,12.3090114 C191.953479,15.1516886 190.310464,17.2119776 188.119776,17.2119776 C185.87693,17.2119776 184.286074,15.125609 184.286074,12.3611706 C184.286074,9.96184672 185.459656,7.45820438 188.171936,7.45820438 L188.171936,7.45820438 Z M197.19548,18.6463561 L199.490485,18.6463561 L199.490485,11.0571902 C199.490485,10.6659961 199.542645,10.274802 199.646963,9.98792632 C200.038157,8.71002555 201.21174,7.64076163 202.724357,7.64076163 C204.888964,7.64076163 205.645273,9.33593613 205.645273,11.3701455 L205.645273,18.6463561 L207.940278,18.6463561 L207.940278,11.1093495 C207.940278,6.78013458 205.227999,5.73695027 203.480665,5.73695027 C201.394297,5.73695027 199.933839,6.91053262 199.307928,8.11019457 L199.255769,8.11019457 L199.125371,6.02382596 L197.091161,6.02382596 C197.1694,7.06701026 197.19548,8.13627418 197.19548,9.44025456 L197.19548,18.6463561 Z M226.065606,6.02382596 L225.961287,7.92763732 L225.909128,7.92763732 C225.361456,6.88445301 224.161794,5.73695027 221.971107,5.73695027 C219.076271,5.73695027 216.285753,8.16235379 216.285753,12.4394094 C216.285753,15.9340769 218.528599,18.5941969 221.658152,18.5941969 C223.614122,18.5941969 224.970262,17.655331 225.674411,16.4817486 L225.726571,16.4817486 L225.726571,17.8900474 C225.726571,21.0717596 224.005317,22.2975011 221.658152,22.2975011 C220.093375,22.2975011 218.789395,21.8280682 217.954848,21.306476 L217.381096,23.0538098 C218.398201,23.7318796 220.067296,24.0969941 221.579913,24.0969941 C223.170769,24.0969941 224.944182,23.7318796 226.169924,22.5843768 C227.395666,21.4890333 227.969417,19.71562 227.969417,16.8207835 L227.969417,9.49241378 C227.969417,7.95371693 228.021576,6.93661223 228.073735,6.02382596 L226.065606,6.02382596 Z M225.700491,13.2739569 C225.700491,13.665151 225.648332,14.1085043 225.517934,14.4996984 C225.022421,15.9601565 223.744521,16.8468631 222.336222,16.8468631 C219.858659,16.8468631 218.606838,14.7865741 218.606838,12.3090114 C218.606838,9.38809535 220.171614,7.5364432 222.362301,7.5364432 C224.031396,7.5364432 225.152819,8.63178672 225.570093,9.96184672 C225.674411,10.274802 225.700491,10.6138369 225.700491,11.005031 L225.700491,13.2739569 Z M240.852743,18.6463561 C240.696266,17.785729 240.644106,16.7164651 240.644106,15.6211216 L240.644106,10.9007126 C240.644106,8.37099065 239.70524,5.73695027 235.845458,5.73695027 C234.254602,5.73695027 232.741985,6.1803036 231.698801,6.8583734 L232.220393,8.37099065 C233.1071,7.79723928 234.332841,7.43212477 235.506424,7.43212477 C238.088305,7.43212477 238.37518,9.30985652 238.37518,10.3530408 L238.37518,10.6138369 C233.498294,10.5877573 230.786015,12.2568522 230.786015,15.3081663 C230.786015,17.1337388 232.089995,18.9332318 234.645797,18.9332318 C236.445289,18.9332318 237.801429,18.0465251 238.505578,17.0555 L238.583817,17.0555 L238.766375,18.6463561 L240.852743,18.6463561 Z M238.42734,14.39538 C238.42734,14.6300965 238.37518,14.8908926 238.296942,15.125609 C237.931827,16.1948729 236.888643,17.2380573 235.245628,17.2380573 C234.072045,17.2380573 233.08102,16.5339078 233.08102,15.0473702 C233.08102,12.5958871 235.923697,12.1525338 238.42734,12.204693 L238.42734,14.39538 Z M244.347411,18.6463561 L246.642416,18.6463561 L246.642416,0.129834626 L244.347411,0.129834626 L244.347411,18.6463561 Z M250.502198,18.6463561 L252.797203,18.6463561 L252.797203,0.129834626 L250.502198,0.129834626 L250.502198,18.6463561 Z M266.801953,12.7523647 C266.828032,12.5176483 266.880192,12.1525338 266.880192,11.6831008 C266.880192,9.36201574 265.784848,5.73695027 261.66427,5.73695027 C257.987045,5.73695027 255.744199,8.73610516 255.744199,12.5437279 C255.744199,16.3513506 258.065284,18.9071521 261.951146,18.9071521 C263.959276,18.9071521 265.341495,18.4898784 266.149963,18.1247639 L265.758768,16.4817486 C264.898141,16.8468631 263.907116,17.1337388 262.264101,17.1337388 C259.969096,17.1337388 257.987045,15.855838 257.934886,12.7523647 L266.801953,12.7523647 Z M257.960966,11.1093495 C258.143523,9.51849339 259.160628,7.37996556 261.481713,7.37996556 C264.063594,7.37996556 264.689505,9.64889142 264.663425,11.1093495 L257.960966,11.1093495 Z M269.722869,18.6463561 L271.991795,18.6463561 L271.991795,11.9178173 C271.991795,11.5266232 272.043954,11.1615087 272.096113,10.8485534 C272.409068,9.12729927 273.556571,7.90155771 275.173507,7.90155771 C275.486462,7.90155771 275.721179,7.92763732 275.955895,7.97979653 L275.955895,5.8151891 C275.747258,5.76302988 275.564701,5.73695027 275.303905,5.73695027 C273.765208,5.73695027 272.382989,6.80621419 271.809237,8.50138869 L271.704919,8.50138869 L271.62668,6.02382596 L269.61855,6.02382596 C269.696789,7.1974083 269.722869,8.47530908 269.722869,9.96184672 L269.722869,18.6463561 Z M277.233796,6.02382596 L281.902046,17.655331 C282.006364,17.9422067 282.058523,18.1247639 282.058523,18.255162 C282.058523,18.38556 281.980284,18.5681172 281.875966,18.8028337 C281.354374,19.9764161 280.571986,20.8631227 279.946075,21.3586353 C279.268005,21.9323866 278.511697,22.2975011 277.937945,22.4800584 L278.511697,24.4099494 C279.085448,24.3056309 280.206871,23.9144368 281.328294,22.9234117 C282.893071,21.5672721 284.014494,19.3505055 285.657509,15.0212906 L289.100017,6.02382596 L286.674614,6.02382596 L284.170971,13.4304345 C283.858016,14.3432208 283.59722,15.3081663 283.362504,16.0644749 L283.310344,16.0644749 C283.101708,15.3081663 282.788752,14.3171412 282.501877,13.4825937 L279.737438,6.02382596 L277.233796,6.02382596 Z" id="icon-gallery" fill="#999999" sketch:type="MSShapeGroup"></path>
            </g>
        </g>
    </g>
</svg>